<mxfile host="app.diagrams.net" modified="2023-09-05T19:59:57.926Z" agent="Mozilla/5.0 (Windows NT 10.0; Win64; x64) AppleWebKit/537.36 (KHTML, like Gecko) Chrome/116.0.0.0 Safari/537.36 Edg/116.0.1938.69" etag="d78tTQYxylXh-Out_-U6" version="21.7.2" type="device">
  <diagram name="Page-1" id="89FshnBJI9hfG4psg-TX">
    <mxGraphModel dx="1970" dy="1121" grid="1" gridSize="10" guides="1" tooltips="1" connect="1" arrows="1" fold="1" page="1" pageScale="1" pageWidth="850" pageHeight="1100" math="1" shadow="0">
      <root>
        <mxCell id="0" />
        <mxCell id="1" parent="0" />
        <mxCell id="FgbDlCnHwRzW7cwkNhHO-34" value="$$A$$" style="text;html=1;align=center;verticalAlign=middle;resizable=0;points=[];autosize=1;strokeColor=none;fillColor=none;" vertex="1" parent="1">
          <mxGeometry x="660" y="760" width="60" height="30" as="geometry" />
        </mxCell>
        <mxCell id="FgbDlCnHwRzW7cwkNhHO-32" value="$$O$$" style="text;html=1;align=center;verticalAlign=middle;resizable=0;points=[];autosize=1;strokeColor=none;fillColor=none;" vertex="1" parent="1">
          <mxGeometry x="360" y="760" width="70" height="30" as="geometry" />
        </mxCell>
        <mxCell id="FgbDlCnHwRzW7cwkNhHO-33" value="$$F$$" style="text;html=1;align=center;verticalAlign=middle;resizable=0;points=[];autosize=1;strokeColor=none;fillColor=none;" vertex="1" parent="1">
          <mxGeometry x="552.5" y="760" width="60" height="30" as="geometry" />
        </mxCell>
        <mxCell id="FgbDlCnHwRzW7cwkNhHO-1" value="" style="ellipse;whiteSpace=wrap;html=1;fillColor=none;strokeColor=#FF0000;" vertex="1" parent="1">
          <mxGeometry x="90" y="570" width="610" height="390" as="geometry" />
        </mxCell>
        <mxCell id="FgbDlCnHwRzW7cwkNhHO-8" value="" style="ellipse;whiteSpace=wrap;html=1;fillColor=none;strokeColor=#6C8EBF;" vertex="1" parent="1">
          <mxGeometry x="90" y="460" width="610" height="610" as="geometry" />
        </mxCell>
        <mxCell id="FgbDlCnHwRzW7cwkNhHO-26" value="" style="ellipse;whiteSpace=wrap;html=1;fillColor=none;strokeColor=#D79B00;" vertex="1" parent="1">
          <mxGeometry x="200" y="570" width="390" height="390" as="geometry" />
        </mxCell>
        <mxCell id="FgbDlCnHwRzW7cwkNhHO-30" value="&lt;font color=&quot;#d79b00&quot;&gt;$$b$$&lt;/font&gt;" style="text;html=1;align=center;verticalAlign=middle;resizable=0;points=[];autosize=1;strokeColor=none;fillColor=none;" vertex="1" parent="1">
          <mxGeometry x="293" y="667" width="60" height="30" as="geometry" />
        </mxCell>
        <mxCell id="FgbDlCnHwRzW7cwkNhHO-23" value="&lt;font color=&quot;#6c8ebf&quot;&gt;$$a$$&lt;/font&gt;" style="text;html=1;align=center;verticalAlign=middle;resizable=0;points=[];autosize=1;strokeColor=none;fillColor=none;" vertex="1" parent="1">
          <mxGeometry x="382" y="610" width="60" height="30" as="geometry" />
        </mxCell>
        <mxCell id="FgbDlCnHwRzW7cwkNhHO-29" value="&lt;font color=&quot;#6c8ebf&quot;&gt;$$P&#39;$$&lt;/font&gt;" style="text;html=1;align=center;verticalAlign=middle;resizable=0;points=[];autosize=1;strokeColor=none;fillColor=none;" vertex="1" parent="1">
          <mxGeometry x="401.5" y="461" width="70" height="30" as="geometry" />
        </mxCell>
        <mxCell id="FgbDlCnHwRzW7cwkNhHO-28" value="&lt;font color=&quot;#ff0000&quot;&gt;$$P$$&lt;/font&gt;" style="text;html=1;align=center;verticalAlign=middle;resizable=0;points=[];autosize=1;strokeColor=none;fillColor=none;" vertex="1" parent="1">
          <mxGeometry x="434" y="550" width="60" height="30" as="geometry" />
        </mxCell>
        <mxCell id="FgbDlCnHwRzW7cwkNhHO-22" value="&lt;font color=&quot;#6c8ebf&quot;&gt;$$E$$&lt;/font&gt;" style="text;html=1;align=center;verticalAlign=middle;resizable=0;points=[];autosize=1;strokeColor=none;fillColor=none;" vertex="1" parent="1">
          <mxGeometry x="382" y="737.5" width="60" height="30" as="geometry" />
        </mxCell>
        <mxCell id="FgbDlCnHwRzW7cwkNhHO-2" value="" style="endArrow=none;html=1;rounded=0;entryX=1;entryY=0.5;entryDx=0;entryDy=0;exitX=0;exitY=0.5;exitDx=0;exitDy=0;" edge="1" parent="1" source="FgbDlCnHwRzW7cwkNhHO-5" target="FgbDlCnHwRzW7cwkNhHO-1">
          <mxGeometry width="50" height="50" relative="1" as="geometry">
            <mxPoint x="610" y="740" as="sourcePoint" />
            <mxPoint x="660" y="690" as="targetPoint" />
          </mxGeometry>
        </mxCell>
        <mxCell id="FgbDlCnHwRzW7cwkNhHO-4" value="" style="endArrow=none;html=1;rounded=0;entryX=1;entryY=0.5;entryDx=0;entryDy=0;exitX=0;exitY=0.5;exitDx=0;exitDy=0;" edge="1" parent="1" source="FgbDlCnHwRzW7cwkNhHO-1" target="FgbDlCnHwRzW7cwkNhHO-3">
          <mxGeometry width="50" height="50" relative="1" as="geometry">
            <mxPoint x="90" y="765" as="sourcePoint" />
            <mxPoint x="870" y="765" as="targetPoint" />
          </mxGeometry>
        </mxCell>
        <mxCell id="FgbDlCnHwRzW7cwkNhHO-9" value="" style="endArrow=none;html=1;rounded=0;entryX=0.501;entryY=0.498;entryDx=0;entryDy=0;exitX=0.443;exitY=0.573;exitDx=0;exitDy=0;exitPerimeter=0;entryPerimeter=0;strokeColor=#FF0000;" edge="1" parent="1" source="FgbDlCnHwRzW7cwkNhHO-10" target="FgbDlCnHwRzW7cwkNhHO-5">
          <mxGeometry width="50" height="50" relative="1" as="geometry">
            <mxPoint x="320" y="740" as="sourcePoint" />
            <mxPoint x="370" y="690" as="targetPoint" />
          </mxGeometry>
        </mxCell>
        <mxCell id="FgbDlCnHwRzW7cwkNhHO-11" value="" style="verticalLabelPosition=bottom;verticalAlign=top;html=1;shape=mxgraph.basic.arc;startAngle=0.9030813847013754;endAngle=0.2484085036175459;strokeColor=#FF0000;" vertex="1" parent="1">
          <mxGeometry x="547.5" y="730" width="70" height="70" as="geometry" />
        </mxCell>
        <mxCell id="FgbDlCnHwRzW7cwkNhHO-12" value="" style="endArrow=none;html=1;rounded=0;entryX=0.594;entryY=0.01;entryDx=0;entryDy=0;entryPerimeter=0;" edge="1" parent="1" source="FgbDlCnHwRzW7cwkNhHO-15" target="FgbDlCnHwRzW7cwkNhHO-8">
          <mxGeometry width="50" height="50" relative="1" as="geometry">
            <mxPoint x="453" y="765" as="sourcePoint" />
            <mxPoint x="453" y="390" as="targetPoint" />
          </mxGeometry>
        </mxCell>
        <mxCell id="FgbDlCnHwRzW7cwkNhHO-6" value="" style="endArrow=none;html=1;rounded=0;entryX=1;entryY=0.5;entryDx=0;entryDy=0;exitX=0;exitY=0.5;exitDx=0;exitDy=0;" edge="1" parent="1" source="FgbDlCnHwRzW7cwkNhHO-3" target="FgbDlCnHwRzW7cwkNhHO-5">
          <mxGeometry width="50" height="50" relative="1" as="geometry">
            <mxPoint x="393" y="765" as="sourcePoint" />
            <mxPoint x="700" y="765" as="targetPoint" />
          </mxGeometry>
        </mxCell>
        <mxCell id="FgbDlCnHwRzW7cwkNhHO-14" value="" style="endArrow=none;html=1;rounded=0;" edge="1" parent="1" target="FgbDlCnHwRzW7cwkNhHO-10">
          <mxGeometry width="50" height="50" relative="1" as="geometry">
            <mxPoint x="453" y="765" as="sourcePoint" />
            <mxPoint x="453" y="390" as="targetPoint" />
          </mxGeometry>
        </mxCell>
        <mxCell id="FgbDlCnHwRzW7cwkNhHO-10" value="" style="ellipse;whiteSpace=wrap;html=1;fillColor=#ff0000;strokeColor=#FF0000;" vertex="1" parent="1">
          <mxGeometry x="450" y="570" width="5" height="5" as="geometry" />
        </mxCell>
        <mxCell id="FgbDlCnHwRzW7cwkNhHO-17" value="" style="endArrow=none;html=1;rounded=0;entryX=0.594;entryY=0.01;entryDx=0;entryDy=0;entryPerimeter=0;" edge="1" parent="1" source="FgbDlCnHwRzW7cwkNhHO-10" target="FgbDlCnHwRzW7cwkNhHO-15">
          <mxGeometry width="50" height="50" relative="1" as="geometry">
            <mxPoint x="452" y="570" as="sourcePoint" />
            <mxPoint x="452" y="466" as="targetPoint" />
          </mxGeometry>
        </mxCell>
        <mxCell id="FgbDlCnHwRzW7cwkNhHO-15" value="" style="ellipse;whiteSpace=wrap;html=1;fillColor=#6C8EBF;strokeColor=#6C8EBF;" vertex="1" parent="1">
          <mxGeometry x="450" y="462" width="5" height="5" as="geometry" />
        </mxCell>
        <mxCell id="FgbDlCnHwRzW7cwkNhHO-18" value="" style="endArrow=none;html=1;rounded=0;entryX=0.594;entryY=0.008;entryDx=0;entryDy=0;entryPerimeter=0;strokeColor=#6C8EBF;" edge="1" parent="1" target="FgbDlCnHwRzW7cwkNhHO-8">
          <mxGeometry width="50" height="50" relative="1" as="geometry">
            <mxPoint x="395" y="765" as="sourcePoint" />
            <mxPoint x="460.5" y="587.5" as="targetPoint" />
          </mxGeometry>
        </mxCell>
        <mxCell id="FgbDlCnHwRzW7cwkNhHO-19" value="" style="verticalLabelPosition=bottom;verticalAlign=top;html=1;shape=mxgraph.basic.arc;startAngle=0.028344371449254675;endAngle=0.2484085036175459;strokeColor=#6C8EBF;" vertex="1" parent="1">
          <mxGeometry x="360" y="730" width="70" height="70" as="geometry" />
        </mxCell>
        <mxCell id="FgbDlCnHwRzW7cwkNhHO-21" value="&lt;font color=&quot;#ff0000&quot;&gt;$$\nu$$&lt;/font&gt;" style="text;html=1;align=center;verticalAlign=middle;resizable=0;points=[];autosize=1;strokeColor=none;fillColor=none;" vertex="1" parent="1">
          <mxGeometry x="564" y="731" width="70" height="30" as="geometry" />
        </mxCell>
        <mxCell id="FgbDlCnHwRzW7cwkNhHO-24" value="$$e\cdot a$$" style="text;html=1;align=center;verticalAlign=middle;resizable=0;points=[];autosize=1;strokeColor=none;fillColor=none;" vertex="1" parent="1">
          <mxGeometry x="447.5" y="782" width="100" height="30" as="geometry" />
        </mxCell>
        <mxCell id="FgbDlCnHwRzW7cwkNhHO-25" value="" style="endArrow=baseDash;html=1;rounded=0;startArrow=baseDash;startFill=0;endFill=0;" edge="1" parent="1">
          <mxGeometry width="50" height="50" relative="1" as="geometry">
            <mxPoint x="585" y="788.5" as="sourcePoint" />
            <mxPoint x="395" y="788.5" as="targetPoint" />
          </mxGeometry>
        </mxCell>
        <mxCell id="FgbDlCnHwRzW7cwkNhHO-27" value="" style="endArrow=none;html=1;rounded=0;entryX=0.205;entryY=0.097;entryDx=0;entryDy=0;entryPerimeter=0;exitX=0.478;exitY=0.522;exitDx=0;exitDy=0;exitPerimeter=0;strokeColor=#D79B00;" edge="1" parent="1" source="FgbDlCnHwRzW7cwkNhHO-3" target="FgbDlCnHwRzW7cwkNhHO-26">
          <mxGeometry width="50" height="50" relative="1" as="geometry">
            <mxPoint x="390" y="760" as="sourcePoint" />
            <mxPoint x="462" y="475" as="targetPoint" />
          </mxGeometry>
        </mxCell>
        <mxCell id="FgbDlCnHwRzW7cwkNhHO-5" value="" style="ellipse;whiteSpace=wrap;html=1;fillColor=#000000;" vertex="1" parent="1">
          <mxGeometry x="580" y="762.5" width="5" height="5" as="geometry" />
        </mxCell>
        <mxCell id="FgbDlCnHwRzW7cwkNhHO-3" value="" style="ellipse;whiteSpace=wrap;html=1;fillColor=#000000;" vertex="1" parent="1">
          <mxGeometry x="392.5" y="762.5" width="5" height="5" as="geometry" />
        </mxCell>
        <mxCell id="FgbDlCnHwRzW7cwkNhHO-37" value="" style="ellipse;whiteSpace=wrap;html=1;fillColor=#000000;" vertex="1" parent="1">
          <mxGeometry x="698" y="762.5" width="5" height="5" as="geometry" />
        </mxCell>
        <mxCell id="FgbDlCnHwRzW7cwkNhHO-38" value="" style="rounded=0;whiteSpace=wrap;html=1;fillColor=none;" vertex="1" parent="1">
          <mxGeometry x="260" y="440" width="460" height="390" as="geometry" />
        </mxCell>
      </root>
    </mxGraphModel>
  </diagram>
</mxfile>
